<svg width="648" height="486" viewBox="0 0 648 486" fill="none" xmlns="http://www.w3.org/2000/svg">
<path d="M623.587 485.919C617.715 485.919 612.042 483.792 607.617 479.933C603.191 476.073 600.313 470.742 599.515 464.924L599.288 461.62V24.2921C599.29 18.1354 601.628 12.209 605.832 7.71033C610.035 3.21164 615.789 0.476074 621.931 0.0564575C628.073 -0.36319 634.146 1.56442 638.922 5.44965C643.698 9.3349 646.821 14.8882 647.66 20.9873L647.887 24.2597V461.652C647.887 468.097 645.327 474.277 640.77 478.834C636.213 483.392 630.032 485.952 623.587 485.952V485.919ZM219.89 424.911L217.201 427.957C211.622 433.535 204.2 436.886 196.326 437.381C188.452 437.876 180.668 435.481 174.434 430.646L171.388 427.957L9.48853 266.024C3.9101 260.445 0.559021 253.023 0.0639038 245.149C-0.431213 237.275 1.96368 229.491 6.79938 223.257L9.48853 220.244L171.356 58.1171C177.158 52.1756 185.019 48.6886 193.317 48.3759C201.616 48.0632 209.717 50.9488 215.949 56.4368C222.181 61.9248 226.069 69.5963 226.808 77.8674C227.547 86.1386 225.083 94.3779 219.923 100.884L217.234 103.93L110.672 210.654L518.289 210.654C526.225 210.655 533.884 213.568 539.815 218.841C545.745 224.115 549.533 231.381 550.462 239.262L550.689 243.053C550.688 250.989 547.774 258.648 542.501 264.578C537.228 270.509 529.961 274.297 522.08 275.226L518.289 275.453L110.575 275.453L217.201 382.144C222.78 387.723 226.131 395.146 226.626 403.019C227.121 410.893 224.726 418.677 219.89 424.911L217.201 427.957L219.89 424.911Z" fill="black"/>
</svg>
