<svg width="604" height="678" viewBox="0 0 604 678" fill="none" xmlns="http://www.w3.org/2000/svg">
<path d="M524.943 73.362H504.54V51.1007C504.54 22.9117 482.297 0 454.926 0C427.536 0 405.312 22.9117 405.312 51.1007V73.3434H354.397V51.1007C354.397 22.9117 332.154 0 304.783 0C277.412 0 255.169 22.9117 255.169 51.1007V73.3434H204.254V51.1007C204.254 22.9117 182.011 0 154.64 0C127.269 0 105.026 22.9117 105.026 51.1007V73.3434H78.9738C35.436 73.3434 0 108.779 0 152.317V598.287C0 641.824 35.436 677.26 78.9738 677.26H524.943C568.5 677.26 603.917 641.824 603.917 598.287V152.317C603.917 108.798 568.481 73.362 524.943 73.362ZM433.185 51.1007C433.185 38.2976 442.941 27.8731 454.926 27.8731C466.93 27.8731 476.667 38.2976 476.667 51.1007V142.078C476.667 154.882 466.93 165.306 454.926 165.306C442.941 165.306 433.185 154.882 433.185 142.078V51.1007ZM283.042 51.1007C283.042 38.2976 292.798 27.8731 304.783 27.8731C316.768 27.8731 326.524 38.2976 326.524 51.1007V142.078C326.524 154.882 316.768 165.306 304.783 165.306C292.798 165.306 283.042 154.882 283.042 142.078V51.1007ZM132.88 51.1007C132.88 38.2976 142.636 27.8731 154.621 27.8731C166.607 27.8731 176.362 38.2976 176.362 51.1007V142.078C176.362 154.882 166.607 165.306 154.621 165.306C142.636 165.306 132.88 154.882 132.88 142.078V51.1007ZM557.462 598.305C557.462 616.237 542.875 630.824 524.943 630.824H78.9738C61.0421 630.824 46.4552 616.237 46.4552 598.305V189.5H557.462V598.305Z" fill="black"/>
<path d="M173.637 271.78H88.2527V347.762H173.637V271.78Z" fill="black"/>
<path d="M287.638 271.78H202.235V347.762H287.638V271.78Z" fill="black"/>
<path d="M401.66 271.78H316.276V347.762H401.66V271.78Z" fill="black"/>
<path d="M515.643 271.78H430.24V347.762H515.643V271.78Z" fill="black"/>
<path d="M173.637 373.204H88.2527V449.131H173.637V373.204Z" fill="black"/>
<path d="M287.638 373.204H202.235V449.131H287.638V373.204Z" fill="black"/>
<path d="M401.66 373.204H316.276V449.131H401.66V373.204Z" fill="black"/>
<path d="M515.643 373.204H430.24V449.131H515.643V373.204Z" fill="black"/>
<path d="M173.637 474.587H88.2527V550.513H173.637V474.587Z" fill="black"/>
<path d="M287.638 474.587H202.235V550.513H287.638V474.587Z" fill="black"/>
<path d="M401.66 474.587H316.276V550.513H401.66V474.587Z" fill="black"/>
<path d="M515.643 474.587H430.24V550.513H515.643V474.587Z" fill="black"/>
</svg>
