<svg width="601" height="702" viewBox="0 0 601 702" fill="none" xmlns="http://www.w3.org/2000/svg">
<path d="M434.056 367.278C341.902 367.278 267.111 442.069 267.111 534.222C267.111 626.375 341.902 701.167 434.056 701.167C526.209 701.167 601 626.375 601 534.222C601 442.069 526.209 367.278 434.056 367.278ZM489.147 612.686L417.361 540.9V434.056H450.75V527.211L512.519 588.98L489.147 612.686ZM467.444 66.7778H361.268C347.244 28.0467 310.517 0 267.111 0C223.706 0 186.978 28.0467 172.954 66.7778H66.7778C30.05 66.7778 0 96.8278 0 133.556V634.389C0 671.117 30.05 701.167 66.7778 701.167H270.784C251.03 681.993 234.96 659.359 223.372 634.389H66.7778V133.556H133.556V233.722H400.667V133.556H467.444V303.171C491.151 306.51 513.521 313.522 534.222 323.204V133.556C534.222 96.8278 504.172 66.7778 467.444 66.7778ZM267.111 133.556C248.747 133.556 233.722 118.531 233.722 100.167C233.722 81.8028 248.747 66.7778 267.111 66.7778C285.475 66.7778 300.5 81.8028 300.5 100.167C300.5 118.531 285.475 133.556 267.111 133.556Z" fill="black"/>
</svg>
