<svg width="655" height="655" viewBox="0 0 655 655" fill="none" xmlns="http://www.w3.org/2000/svg">
<path d="M327.5 0C262.727 0 199.408 19.2075 145.551 55.1937C91.6938 91.1798 49.7173 142.328 24.9296 202.171C0.1419 262.014 -6.34369 327.863 6.29297 391.392C18.9296 454.921 50.121 513.276 95.9227 559.077C141.724 604.879 200.079 636.07 263.608 648.707C327.137 661.344 392.986 654.858 452.829 630.07C512.672 605.283 563.82 563.306 599.806 509.449C635.792 455.592 655 392.273 655 327.5C654.901 240.672 620.365 157.429 558.968 96.0319C497.571 34.6352 414.328 0.0990622 327.5 0ZM327.5 608.214C253.05 608.214 181.649 578.639 129.005 525.995C76.361 473.351 46.7859 401.95 46.7859 327.5C46.7859 253.05 76.361 181.649 129.005 129.005C181.649 76.3609 253.05 46.7857 327.5 46.7857V327.5L525.895 525.895C499.877 552.006 468.956 572.72 434.91 586.847C400.863 600.974 364.361 608.235 327.5 608.214Z" fill="black"/>
</svg>
