<svg width="655" height="655" viewBox="0 0 655 655" fill="none" xmlns="http://www.w3.org/2000/svg">
<path fill-rule="evenodd" clip-rule="evenodd" d="M67.2555 128.693L17.4791 78.9196C16.0478 77.4848 14.2227 76.5072 12.2352 76.1109C10.2476 75.7145 8.18714 75.9172 6.31492 76.6932C4.44271 77.4693 2.84309 78.7837 1.71885 80.4699C0.594616 82.1561 -0.0036097 84.1381 1.63872e-05 86.1646V235.404C1.63872e-05 241.053 4.58469 245.637 10.2337 245.637H159.481C161.508 245.641 163.49 245.042 165.176 243.918C166.862 242.794 168.177 241.195 168.953 239.322C169.729 237.45 169.932 235.39 169.535 233.403C169.139 231.415 168.161 229.59 166.727 228.159L111.137 172.573C147.374 121.966 200.207 85.6645 260.444 69.9844C320.682 54.3042 384.51 60.2379 440.824 86.7531C497.139 113.268 542.374 158.687 568.66 215.106C594.946 271.525 600.619 335.374 584.692 395.543C568.765 455.712 532.245 508.394 481.488 544.421C430.731 580.448 368.948 597.541 306.89 592.726C244.832 587.91 186.426 561.491 141.834 518.065C97.2428 474.639 69.2883 416.955 62.8346 355.049C61.9986 346.945 57.9774 339.505 51.6557 334.366C45.3339 329.227 37.2294 326.809 29.125 327.645C21.0206 328.481 13.5802 332.502 8.44062 338.823C3.30106 345.145 0.883316 353.249 1.71927 361.353C9.59459 437.128 43.6425 507.788 98.0016 561.167C152.361 614.547 223.63 647.306 299.54 653.805C375.45 660.305 451.251 640.139 513.894 596.777C576.538 553.416 622.103 489.573 642.747 416.24C663.391 342.906 657.822 264.67 626.998 195C596.174 125.33 542.023 68.5849 473.869 34.5339C405.715 0.482852 327.822 -8.74369 253.598 8.44258C179.374 25.6289 113.464 68.1526 67.2146 128.693H67.2555ZM317.243 163.772C325.385 163.772 333.194 167.007 338.952 172.764C344.709 178.521 347.944 186.33 347.944 194.472V316.941L430.959 350.178C438.275 353.367 444.061 359.279 447.092 366.661C450.122 374.044 450.159 382.316 447.194 389.725C444.23 397.134 438.496 403.097 431.209 406.351C423.922 409.605 415.655 409.894 408.159 407.156L305.822 366.224C300.131 363.943 295.253 360.011 291.817 354.933C288.381 349.856 286.543 343.866 286.542 337.735V194.472C286.542 186.33 289.777 178.521 295.534 172.764C301.292 167.007 309.101 163.772 317.243 163.772Z" fill="#000080"/>
</svg>
