<svg width="650" height="612" viewBox="0 0 650 612" fill="none" xmlns="http://www.w3.org/2000/svg">
<ellipse cx="324.735" cy="306" rx="324.735" ry="306" fill="#000080"/>
<path fill-rule="evenodd" clip-rule="evenodd" d="M178.704 194.547L150.799 166.643C149.997 165.838 148.973 165.29 147.859 165.068C146.745 164.846 145.59 164.96 144.54 165.395C143.491 165.83 142.594 166.567 141.964 167.512C141.333 168.457 140.998 169.568 141 170.704V254.37C141 257.536 143.57 260.106 146.737 260.106H230.407C231.543 260.108 232.654 259.773 233.6 259.143C234.545 258.513 235.282 257.616 235.717 256.566C236.152 255.517 236.266 254.362 236.043 253.248C235.821 252.133 235.273 251.11 234.469 250.308L203.305 219.146C223.619 190.775 253.238 170.424 287.008 161.634C320.778 152.843 356.561 156.17 388.131 171.034C419.701 185.899 445.061 211.361 459.797 242.99C474.533 274.619 477.713 310.414 468.785 344.145C459.856 377.877 439.382 407.411 410.927 427.608C382.472 447.805 347.836 457.388 313.046 454.688C278.255 451.989 245.512 437.178 220.514 412.833C195.515 388.488 179.844 356.149 176.226 321.444C175.757 316.901 173.503 312.73 169.959 309.849C166.415 306.968 161.871 305.612 157.328 306.081C152.784 306.55 148.613 308.804 145.732 312.348C142.851 315.891 141.495 320.435 141.964 324.978C146.379 367.458 165.466 407.071 195.941 436.996C226.415 466.921 266.369 485.286 308.925 488.93C351.481 492.574 393.976 481.268 429.095 456.959C464.213 432.651 489.758 396.86 501.331 355.748C512.904 314.636 509.782 270.776 492.502 231.719C475.221 192.661 444.864 160.849 406.656 141.76C368.448 122.67 324.78 117.498 283.17 127.133C241.559 136.767 204.609 160.607 178.681 194.547H178.704ZM318.85 214.212C323.414 214.212 327.792 216.025 331.02 219.253C334.248 222.481 336.061 226.858 336.061 231.423V300.08L382.6 318.713C386.701 320.501 389.945 323.815 391.644 327.954C393.343 332.093 393.364 336.73 391.702 340.883C390.04 345.037 386.826 348.38 382.741 350.204C378.655 352.029 374.02 352.19 369.818 350.656L312.447 327.709C309.257 326.43 306.522 324.225 304.596 321.379C302.669 318.532 301.639 315.174 301.639 311.737V231.423C301.639 226.858 303.452 222.481 306.68 219.253C309.907 216.025 314.285 214.212 318.85 214.212V214.212Z" fill="white"/>
</svg>
