<svg width="521" height="520" viewBox="0 0 521 520" fill="none" xmlns="http://www.w3.org/2000/svg">
<path d="M391.718 228.593L391.814 228.497L391.908 228.4C400.606 219.394 405.419 207.332 405.311 194.811C405.202 182.291 400.18 170.314 391.326 161.461C382.473 152.607 370.496 147.585 357.976 147.477C345.455 147.368 333.393 152.181 324.387 160.879L324.293 160.97L324.201 161.062L228.026 257.178L196.94 226.02L196.935 226.015C187.983 217.05 175.836 212.009 163.167 212C150.498 211.991 138.344 217.015 129.379 225.967C120.414 234.92 115.373 247.066 115.364 259.736C115.355 272.405 120.379 284.559 129.331 293.523C129.331 293.524 129.331 293.524 129.331 293.524L194.175 358.466L194.178 358.468C198.612 362.907 203.879 366.43 209.676 368.833C215.473 371.236 221.686 372.473 227.962 372.473C234.237 372.473 240.451 371.236 246.248 368.833C252.045 366.43 257.311 362.907 261.746 358.468L391.718 228.593ZM433.426 432.649C387.575 478.499 325.389 504.258 260.547 504.258C195.704 504.258 133.518 478.499 87.6673 432.649C41.8168 386.798 16.0583 324.612 16.0583 259.769C16.0583 194.927 41.8168 132.741 87.6673 86.8902C133.518 41.0398 195.704 15.2813 260.547 15.2813C325.389 15.2813 387.575 41.0398 433.426 86.8902C479.276 132.741 505.035 194.927 505.035 259.769C505.035 324.612 479.276 386.798 433.426 432.649Z" fill="#00CC3F" stroke="black" stroke-width="30.561"/>
</svg>
