<svg width="520" height="520" viewBox="0 0 520 520" fill="none" xmlns="http://www.w3.org/2000/svg">
<circle cx="260" cy="260" r="260" fill="#000080"/>
<path d="M317.778 267.427C277.911 267.427 245.556 300.707 245.556 341.712C245.556 382.718 277.911 415.998 317.778 415.998C357.644 415.998 390 382.718 390 341.712C390 300.707 357.644 267.427 317.778 267.427ZM341.611 376.627L310.556 344.684V297.141H325V338.592L351.722 366.078L341.611 376.627V376.627ZM332.222 133.712H286.289C280.222 116.478 264.333 103.998 245.556 103.998C226.778 103.998 210.889 116.478 204.822 133.712H158.889C143 133.712 130 147.084 130 163.427V386.284C130 402.627 143 415.998 158.889 415.998H247.144C238.599 407.466 231.647 397.395 226.633 386.284H158.889V163.427H187.778V207.998H303.333V163.427H332.222V238.901C342.478 240.387 352.156 243.507 361.111 247.815V163.427C361.111 147.084 348.111 133.712 332.222 133.712ZM245.556 163.427C237.611 163.427 231.111 156.741 231.111 148.569C231.111 140.398 237.611 133.712 245.556 133.712C253.5 133.712 260 140.398 260 148.569C260 156.741 253.5 163.427 245.556 163.427Z" fill="white"/>
</svg>
