<svg width="520" height="520" viewBox="0 0 520 520" fill="none" xmlns="http://www.w3.org/2000/svg">
<path d="M259.769 519.636C328.664 519.636 394.737 492.268 443.453 443.552C492.169 394.836 519.537 328.763 519.537 259.868C519.537 190.973 492.169 124.9 443.453 76.1836C394.737 27.4675 328.664 0.0991211 259.769 0.0991211C190.874 0.0991211 124.801 27.4675 76.0845 76.1836C27.3684 124.9 0 190.973 0 259.868C0 328.763 27.3684 394.836 76.0845 443.552C124.801 492.268 190.874 519.636 259.769 519.636ZM380.139 217.883L250.157 347.767C247.142 350.786 243.56 353.181 239.618 354.815C235.676 356.449 231.451 357.29 227.184 357.29C222.917 357.29 218.691 356.449 214.749 354.815C210.808 353.181 207.226 350.786 204.211 347.767L139.366 282.825C133.277 276.728 129.86 268.461 129.866 259.845C129.872 251.228 133.301 242.967 139.398 236.878C145.496 230.79 153.762 227.373 162.378 227.379C170.995 227.385 179.256 230.814 185.345 236.911L227.233 278.896L334.225 171.969C340.349 166.054 348.551 162.781 357.065 162.855C365.579 162.929 373.723 166.344 379.743 172.364C385.764 178.385 389.179 186.529 389.253 195.042C389.327 203.556 386.054 211.759 380.139 217.883Z" fill="black"/>
</svg>
