<svg width="520" height="520" viewBox="0 0 520 520" fill="none" xmlns="http://www.w3.org/2000/svg">
<path d="M259.769 0.0991211C306.897 0.0991211 350.361 11.712 390.16 34.9379C429.96 58.1637 461.473 89.6765 484.699 129.476C507.924 169.276 519.537 212.74 519.537 259.868C519.537 306.996 507.924 350.46 484.699 390.26C461.473 430.059 429.96 461.572 390.16 484.798C350.361 508.024 306.897 519.636 259.769 519.636C212.641 519.636 169.177 508.024 129.377 484.798C89.5774 461.572 58.0646 430.059 34.8388 390.26C11.6129 350.46 0 306.996 0 259.868C0 212.74 11.6129 169.276 34.8388 129.476C58.0646 89.6765 89.5774 58.1637 129.377 34.9379C169.177 11.712 212.641 0.0991211 259.769 0.0991211ZM303.063 421.885V357.619C303.063 354.462 302.049 351.813 300.019 349.671C297.99 347.528 295.509 346.457 292.578 346.457H227.636C224.704 346.457 222.111 347.585 219.856 349.84C217.601 352.095 216.474 354.688 216.474 357.619V421.885C216.474 424.816 217.601 427.41 219.856 429.665C222.111 431.919 224.704 433.047 227.636 433.047H292.578C295.509 433.047 297.99 431.976 300.019 429.834C302.049 427.691 303.063 425.042 303.063 421.885ZM302.387 305.53L308.475 95.4829C308.475 92.777 307.348 90.7476 305.093 89.3946C302.838 87.5907 300.132 86.6887 296.975 86.6887H222.562C219.405 86.6887 216.699 87.5907 214.444 89.3946C212.19 90.7476 211.062 92.777 211.062 95.4829L216.812 305.53C216.812 307.785 217.94 309.758 220.195 311.449C222.449 313.141 225.155 313.986 228.312 313.986H290.887C294.044 313.986 296.693 313.141 298.835 311.449C300.978 309.758 302.161 307.785 302.387 305.53Z" fill="black"/>
</svg>
