<svg width="523" height="520" viewBox="0 0 523 520" fill="none" xmlns="http://www.w3.org/2000/svg">
<path d="M493.514 29.0358C476.855 12.5687 454.953 2.45915 431.614 0.464088C408.275 -1.53097 384.974 4.71458 365.762 18.1153C427.52 43.8281 477.97 90.8944 507.902 150.721C519.455 131.75 524.317 109.454 521.708 87.3955C519.1 65.337 509.174 44.7892 493.514 29.0358Z" fill="black"/>
<path d="M28.9359 28.9804C12.4688 45.6395 2.35927 67.5418 0.364204 90.8809C-1.63086 114.22 4.6147 137.52 18.0155 156.733C43.7282 94.975 90.7945 44.5249 150.621 14.5931C131.65 3.03944 109.354 -1.82173 87.2956 0.786316C65.2371 3.39438 44.6894 13.3212 28.9359 28.9804Z" fill="black"/>
<path d="M260.023 31.8099C212.11 31.9089 165.297 46.1891 125.487 72.8507C85.6762 99.5123 54.6488 137.362 36.3153 181.629C17.9817 225.897 13.1625 274.601 22.4651 321.603C31.7676 368.605 54.7755 411.801 88.5891 445.748L44.3871 489.95C42.7823 491.589 41.516 493.528 40.6606 495.656C39.8051 497.785 39.3772 500.061 39.4014 502.354C39.4255 504.648 39.9012 506.915 40.8013 509.024C41.7013 511.134 43.0082 513.046 44.6471 514.651C46.2861 516.256 48.2251 517.522 50.3535 518.378C52.4818 519.233 54.7578 519.661 57.0515 519.637C59.3452 519.613 61.6117 519.137 63.7216 518.237C65.8315 517.337 67.7434 516.03 69.3482 514.391L115.457 468.282C157.623 500.19 209.114 517.341 261.991 517.091C314.868 516.84 366.195 499.202 408.056 466.896L455.552 514.391C458.868 517.231 463.133 518.715 467.496 518.546C471.858 518.378 475.997 516.569 479.084 513.482C482.171 510.395 483.979 506.257 484.148 501.894C484.316 497.531 482.833 493.266 479.993 489.95L433.364 444.015C466.702 409.867 489.232 366.647 498.135 319.762C507.039 272.877 501.921 224.407 483.421 180.415C464.922 136.424 433.862 98.8628 394.127 72.431C354.393 45.9992 307.746 31.8698 260.023 31.8099ZM389.509 333.943C387.523 338.072 383.983 341.247 379.663 342.774C375.343 344.301 370.594 344.055 366.455 342.09L242.689 282.114V130.441C242.689 125.844 244.515 121.435 247.766 118.184C251.017 114.933 255.426 113.107 260.023 113.107C264.621 113.107 269.03 114.933 272.28 118.184C275.531 121.435 277.357 125.844 277.357 130.441V260.447L381.362 310.889C383.437 311.841 385.303 313.193 386.854 314.869C388.405 316.544 389.609 318.509 390.399 320.651C391.188 322.793 391.546 325.07 391.453 327.351C391.36 329.632 390.817 331.873 389.856 333.943H389.509Z" fill="black"/>
</svg>
