<svg width="520" height="520" viewBox="0 0 520 520" fill="none" xmlns="http://www.w3.org/2000/svg">
<circle cx="260" cy="260" r="260" fill="#000080"/>
<path d="M260 115.555C231.432 115.555 203.505 124.027 179.751 139.899C155.997 155.77 137.484 178.33 126.551 204.723C115.618 231.117 112.758 260.16 118.331 288.18C123.905 316.199 137.662 341.937 157.863 362.137C178.063 382.338 203.801 396.095 231.82 401.669C259.84 407.242 288.883 404.382 315.277 393.449C341.67 382.516 364.23 364.003 380.101 340.249C395.973 316.495 404.445 288.568 404.445 260C404.401 221.704 389.169 184.99 362.09 157.91C335.01 130.831 298.296 115.599 260 115.555ZM260 383.809C227.164 383.809 195.672 370.765 172.454 347.546C149.235 324.328 136.191 292.836 136.191 260C136.191 227.164 149.235 195.672 172.454 172.453C195.672 149.235 227.164 136.19 260 136.19V260L347.503 347.502C336.027 359.019 322.39 368.154 307.373 374.385C292.357 380.616 276.258 383.819 260 383.809Z" fill="white"/>
</svg>
