<svg width="656" height="451" viewBox="0 0 656 451" fill="none" xmlns="http://www.w3.org/2000/svg">
<path d="M651.49 212.708L487.49 7.70803C485.573 5.30707 483.14 3.36778 480.373 2.03359C477.605 0.699391 474.573 0.00440104 471.5 2.22009e-05H184.5C181.426 -0.00451525 178.391 0.686531 175.622 2.02139C172.852 3.35625 170.421 5.30032 168.51 7.70803L4.51 212.708C1.59872 216.337 0.00828791 220.848 0 225.5L0 410C0 420.874 4.31963 431.302 12.0086 438.991C19.6976 446.68 30.1261 451 41 451H615C625.874 451 636.302 446.68 643.991 438.991C651.68 431.302 656 420.874 656 410V225.5C656.002 220.846 654.41 216.332 651.49 212.708ZM615 246H471.5L389.5 328H266.5L184.5 246H41V232.675L194.34 41H461.619L614.959 232.675V246H615Z" fill="#AAA9A9"/>
</svg>
