<svg width="668" height="779" viewBox="0 0 668 779" fill="none" xmlns="http://www.w3.org/2000/svg">
<path d="M240.429 220.483L242.572 269.789L208.272 334.102L154.679 439.146L143.96 527.039L182.547 651.377L270.441 700.683H403.354L527.691 606.358L583.429 458.439L454.804 301.946L418.36 214.052L240.429 220.483Z" fill="#ECEFF1"/>
<path d="M544.841 342.679C510.541 293.372 482.672 263.36 467.666 201.191C452.66 139.022 471.954 156.172 459.091 102.579C452.66 74.7099 441.941 55.4162 431.222 40.41C418.36 25.4037 403.354 16.8287 394.779 14.6849C375.485 3.96619 330.466 -13.1838 274.729 16.8287C216.847 46.8412 223.279 111.154 233.997 241.922C233.997 250.497 231.854 261.216 227.566 269.791C218.991 289.085 203.985 306.235 191.122 321.241C176.116 342.679 161.11 364.116 150.391 387.697C124.666 437.004 101.085 499.172 107.516 522.754C118.235 520.61 253.291 726.41 253.291 730.697C261.866 728.554 298.31 728.554 330.466 728.554C375.485 726.41 401.21 724.266 437.654 732.841C437.654 726.41 435.51 719.979 435.51 713.547C435.51 700.685 437.654 689.966 439.797 674.96C441.941 664.241 444.085 653.523 446.229 640.66C424.791 659.954 386.204 681.391 349.76 687.822C317.604 694.254 264.01 683.535 238.285 651.379C240.429 651.379 244.716 651.379 246.86 649.235C253.291 647.091 259.722 644.948 261.866 640.66C268.297 629.941 264.01 619.223 259.722 612.791C255.435 606.36 223.279 582.779 208.272 569.916C193.266 557.054 184.691 550.622 176.116 542.048L158.966 524.898C154.679 520.61 152.535 516.323 150.391 514.179C146.104 503.46 143.96 490.598 146.104 473.448C148.247 449.866 156.822 430.572 167.541 409.135C171.829 400.56 182.547 383.41 182.547 383.41C182.547 383.41 146.104 473.447 165.397 501.316C165.397 501.316 167.541 473.448 176.116 445.579C182.547 426.285 193.266 398.416 206.129 383.41C218.991 368.404 251.147 312.666 253.291 278.366C253.291 263.36 255.435 248.354 255.435 237.635C246.86 229.06 396.922 207.622 405.497 231.204C407.641 239.779 437.654 316.954 454.804 357.685C463.379 376.979 474.097 394.129 480.529 415.566C486.96 439.147 491.247 471.304 491.247 503.46C491.247 509.891 491.247 520.61 489.104 531.329C493.391 531.329 576.997 441.291 478.385 366.26C478.385 366.26 538.41 394.129 540.553 449.866C542.697 494.885 523.404 531.329 519.116 537.76C521.26 537.76 564.135 557.054 566.279 557.054C574.854 557.054 592.004 550.622 592.004 550.622C594.147 544.191 600.579 527.041 600.579 520.61C615.585 471.304 579.141 391.985 544.841 342.679Z" fill="#263238"/>
<path d="M272.578 201.186C287.969 201.186 300.446 181.99 300.446 158.311C300.446 134.631 287.969 115.436 272.578 115.436C257.186 115.436 244.709 134.631 244.709 158.311C244.709 181.99 257.186 201.186 272.578 201.186Z" fill="#ECEFF1"/>
<path d="M369.049 205.475C389.177 205.475 405.493 183.4 405.493 156.169C405.493 128.938 389.177 106.863 369.049 106.863C348.922 106.863 332.605 128.938 332.605 156.169C332.605 183.4 348.922 205.475 369.049 205.475Z" fill="#ECEFF1"/>
<path d="M288.166 161.245C286.384 147.149 278.274 136.565 270.052 137.605C261.83 138.644 256.609 150.913 258.39 165.008C260.172 179.104 268.282 189.688 276.504 188.648C284.726 187.609 289.947 175.34 288.166 161.245Z" fill="#212121"/>
<path d="M366.91 192.611C378.75 192.611 388.348 180.134 388.348 164.742C388.348 149.351 378.75 136.874 366.91 136.874C355.071 136.874 345.473 149.351 345.473 164.742C345.473 180.134 355.071 192.611 366.91 192.611Z" fill="#212121"/>
<path d="M652.029 636.372C643.454 632.085 628.448 625.654 615.585 606.36C609.154 595.641 611.298 565.629 600.579 552.766C594.148 544.191 585.573 548.479 583.429 548.479C564.135 552.766 519.116 582.779 489.104 548.479C484.816 544.191 478.385 537.76 467.666 537.76C456.948 537.76 452.66 542.047 448.373 550.622C444.085 559.197 444.085 565.629 444.085 587.066C444.085 604.216 444.085 623.51 441.941 638.516C437.654 674.96 431.223 696.397 431.223 717.835C431.223 741.416 437.654 756.422 446.229 762.854C452.66 769.285 463.379 773.572 486.96 773.572C510.541 773.572 525.548 764.997 540.554 749.991C551.273 739.272 559.848 734.985 589.86 713.547C613.441 698.541 649.885 679.247 656.316 672.816C660.604 668.529 667.035 666.385 667.035 653.522C667.035 642.804 658.46 638.516 652.029 636.372Z" fill="#FFC107"/>
<path d="M221.138 642.806C199.7 608.506 197.557 602.075 182.55 580.637C169.688 559.2 141.819 518.469 124.669 518.469C111.807 518.469 105.375 524.9 96.8004 533.475C88.2254 542.05 79.6504 561.344 64.6441 572.062C51.7816 582.781 15.3379 580.637 6.76289 593.5C-1.81211 606.362 15.3379 625.656 15.3379 657.812C15.3379 670.675 4.61914 679.25 2.47539 687.825C0.331639 698.544 -1.81211 704.975 2.47539 713.55C11.0504 726.413 21.7691 730.7 94.6566 745.706C133.244 754.281 169.688 775.719 193.269 777.863C216.85 780.006 257.582 777.862 257.582 719.981C259.725 685.681 240.432 677.106 221.138 642.806Z" fill="#FFC107"/>
<path d="M261.866 254.785C249.004 246.21 238.285 237.635 238.285 224.773C238.285 211.91 246.86 207.623 259.723 196.904C261.866 194.76 285.448 173.323 309.029 173.323C332.61 173.323 360.479 188.329 371.198 192.616C390.491 196.904 409.785 201.192 407.641 216.198C405.498 237.635 403.354 241.923 381.916 252.642C366.91 256.929 339.041 280.51 319.748 280.51C311.173 280.51 298.31 280.51 289.735 278.367C283.304 276.223 272.585 265.504 261.866 254.785Z" fill="#FFC107"/>
<path d="M257.576 237.638C261.864 241.926 268.295 246.213 274.726 248.357C279.014 250.501 285.445 252.644 285.445 252.644H304.739C315.457 252.644 330.464 248.357 345.47 239.782C360.476 233.351 362.62 229.063 373.339 224.776C384.057 218.344 394.776 211.913 390.489 209.769C386.201 207.626 381.914 209.769 366.907 218.344C354.045 226.919 343.326 231.207 330.464 237.638C324.032 239.782 315.457 244.069 309.026 244.069H289.732C283.301 244.069 279.014 241.926 272.582 239.782C268.295 237.638 266.151 235.494 264.007 235.494C259.72 233.351 251.145 224.776 246.857 222.632C246.857 222.632 242.57 222.632 244.714 224.776L257.576 237.638Z" fill="#634703"/>
<path d="M321.889 190.472C324.032 194.759 328.32 194.759 330.464 196.903C332.607 199.047 334.751 199.047 334.751 199.047C336.895 196.903 334.751 192.615 332.607 192.615C332.607 188.328 321.889 188.328 321.889 190.472Z" fill="#634703"/>
<path d="M287.585 194.763C287.585 196.907 291.872 199.051 291.872 196.907C294.016 194.763 296.16 192.62 298.304 192.62C302.591 190.476 300.447 188.332 294.016 188.332C289.729 190.476 289.729 192.62 287.585 194.763Z" fill="#634703"/>
<path d="M495.537 574.203V580.635C499.824 589.21 510.543 591.353 519.118 591.353C531.981 591.353 544.843 582.778 551.274 574.203C551.274 572.06 553.418 569.916 555.562 567.772C559.849 561.341 561.993 557.053 564.137 554.91C564.137 554.91 561.993 552.766 561.993 550.622C559.849 546.335 553.418 542.047 544.843 539.903C538.412 537.76 527.693 535.616 523.406 535.616C504.112 533.472 493.393 539.903 486.962 546.335C486.962 546.335 489.106 546.335 489.106 548.478C493.393 552.766 495.537 557.053 495.537 563.485C497.681 567.772 495.537 569.916 495.537 574.203Z" fill="#455A64"/>
</svg>
