<svg width="520" height="520" viewBox="0 0 520 520" fill="none" xmlns="http://www.w3.org/2000/svg">
<path d="M260 0C191.301 0.828832 125.65 28.4877 77.0687 77.0687C28.4877 125.65 0.828832 191.301 0 260C0.828832 328.699 28.4877 394.35 77.0687 442.931C125.65 491.512 191.301 519.171 260 520C328.699 519.171 394.35 491.512 442.931 442.931C491.512 394.35 519.171 328.699 520 260C519.171 191.301 491.512 125.65 442.931 77.0687C394.35 28.4877 328.699 0.828832 260 0ZM408.571 278.571H278.571V408.571H241.429V278.571H111.429V241.429H241.429V111.429H278.571V241.429H408.571V278.571Z" fill="#000080"/>
</svg>
