<svg width="520" height="520" viewBox="0 0 520 520" fill="none" xmlns="http://www.w3.org/2000/svg">
<path d="M260 37.1429C382.571 37.1429 482.857 137.429 482.857 260C482.857 382.571 382.571 482.857 260 482.857C137.429 482.857 37.1429 382.571 37.1429 260C37.1429 137.429 137.429 37.1429 260 37.1429ZM260 0C117 0 0 117 0 260C0 403 117 520 260 520C403 520 520 403 520 260C520 117 403 0 260 0Z" fill="#000080"/>
<path d="M408.571 241.428H278.571V111.428H241.428V241.428H111.428V278.571H241.428V408.571H278.571V278.571H408.571V241.428Z" fill="#000080"/>
</svg>
