<svg width="520" height="521" viewBox="0 0 520 521" fill="none" xmlns="http://www.w3.org/2000/svg">
<path d="M318.055 307.513L318.108 306.976L318.124 306.436L324.212 96.3884L324.219 96.1671V95.9456C324.219 88.413 320.765 81.5975 314.333 77.3323C309.28 73.5697 303.415 71.8709 297.438 71.8709H223.025C217.049 71.8709 211.183 73.5697 206.13 77.3323C199.698 81.5975 196.244 88.413 196.244 95.9456V96.1548L196.25 96.3638L201.996 306.258C202.09 314.382 206.507 320.4 211.489 324.137C216.704 328.048 222.729 329.729 228.775 329.729H291.35C297.379 329.729 303.517 328.051 308.767 323.906C313.448 320.21 317.334 314.719 318.055 307.513ZM209.514 440.932L220.319 430.127L209.514 440.932C214.357 445.775 220.738 448.79 228.099 448.79H293.041C300.2 448.79 306.682 445.971 311.575 440.805C316.493 435.615 318.807 429.115 318.807 422.348V358.082C318.807 351.315 316.493 344.815 311.575 339.624C306.682 334.459 300.2 331.64 293.041 331.64H228.099C220.738 331.64 214.357 334.654 209.514 339.498C204.671 344.341 201.656 350.722 201.656 358.082V422.348C201.656 429.708 204.671 436.089 209.514 440.932ZM260.232 15.8423C304.718 15.8423 345.514 26.7686 382.922 48.5982C420.446 70.4964 450.066 100.116 471.964 137.641C493.793 175.048 504.72 215.844 504.72 260.331C504.72 304.817 493.793 345.613 471.964 383.021C450.066 420.545 420.446 450.165 382.922 472.063C345.514 493.892 304.718 504.819 260.232 504.819C215.745 504.819 174.949 493.892 137.542 472.063C100.017 450.165 70.3975 420.545 48.4993 383.021C26.6697 345.613 15.7434 304.817 15.7434 260.331C15.7434 215.844 26.6697 175.048 48.4993 137.641C70.3975 100.116 100.017 70.4964 137.542 48.5982C174.949 26.7686 215.745 15.8423 260.232 15.8423Z" fill="#FF0000" stroke="black" stroke-width="30.561"/>
</svg>
