<svg width="523" height="520" viewBox="0 0 523 520" fill="none" xmlns="http://www.w3.org/2000/svg">
<path d="M430.258 17.6361C449.534 19.2838 467.624 27.6246 481.395 41.2112C494.29 54.2083 502.464 71.1482 504.614 89.3317C505.436 96.2831 505.36 103.263 504.42 110.108C479.259 72.6965 445.874 41.5165 406.836 18.9671C414.486 17.4258 422.369 16.9618 430.258 17.6361Z" fill="#FFF500" stroke="black" stroke-width="34.6682"/>
<path d="M17.7554 92.2581C19.4032 72.9822 27.744 54.8914 41.3305 41.1211C54.3276 28.2259 71.2675 20.0513 89.451 17.9014C96.4024 17.0795 103.382 17.1562 110.227 18.0958C72.8158 43.2567 41.6358 76.6417 19.0864 115.68C17.5452 108.03 17.0811 100.147 17.7554 92.2581Z" fill="#FFF500" stroke="black" stroke-width="34.6682"/>
<path d="M100.966 457.906L113.199 445.673L100.99 433.416C69.592 401.894 48.2275 361.783 39.5894 318.138C30.9514 274.494 35.4263 229.269 52.4503 188.163C69.4743 147.058 98.2855 111.911 135.252 87.1542C172.212 62.4023 215.669 49.1425 260.151 49.0449C304.455 49.1062 347.758 62.226 384.647 86.7645C421.544 111.308 450.385 146.186 467.563 187.036C484.741 227.885 489.493 272.893 481.226 316.429C472.958 359.965 452.038 400.098 421.081 431.806L409.026 444.154L409.078 444.205L397.586 453.074C358.736 483.056 311.102 499.425 262.029 499.658C212.956 499.89 165.169 483.973 126.037 454.361L113.997 445.25L103.32 455.926L57.2113 502.035L57.1468 502.099L57.083 502.164C57.0708 502.177 57.0561 502.187 57.0401 502.194C57.0239 502.201 57.0066 502.204 56.9892 502.205C56.9718 502.205 56.9545 502.201 56.9382 502.195L50.4736 518.278L56.938 502.195C56.9297 502.192 56.9217 502.187 56.9143 502.182C56.9073 502.178 56.9007 502.172 56.8946 502.167C56.8821 502.154 56.8721 502.14 56.8653 502.124C56.8617 502.115 56.859 502.106 56.8572 502.097C56.8556 502.089 56.8547 502.081 56.8546 502.073C56.8544 502.055 56.8577 502.038 56.8642 502.022L56.8544 502.018L56.8642 502.022C56.8689 502.01 56.8752 501.999 56.8829 501.989L100.966 457.906ZM359.015 357.59L359.078 357.621L359.142 357.651C367.421 361.58 376.918 362.072 385.559 359.019C390.33 357.333 394.625 354.641 398.184 351.178H401.039L405.698 341.143C407.621 337.002 408.706 332.522 408.893 327.96C409.079 323.398 408.363 318.844 406.784 314.56C405.206 310.275 402.797 306.345 399.695 302.994C396.643 299.697 392.979 297.025 388.908 295.126L294.812 249.489V130.342C294.812 121.147 291.159 112.329 284.657 105.828C278.156 99.3261 269.338 95.6736 260.143 95.6736C250.949 95.6736 242.131 99.3261 235.629 105.828C229.128 112.329 225.475 121.147 225.475 130.342V282.015V292.877L235.25 297.614L359.015 357.59Z" fill="#FFF500" stroke="black" stroke-width="34.6682"/>
</svg>
