<svg width="520" height="520" viewBox="0 0 520 520" fill="none" xmlns="http://www.w3.org/2000/svg">
<path d="M461.038 359.256C542.089 274.676 539.224 140.223 454.635 59.0126C372.572 -19.6709 242.992 -19.6709 160.93 59.0126C90.663 129.272 80.0472 233.565 128.914 315.113C128.914 315.113 132.452 321.01 127.734 325.727L19.3853 434.065C-2.18342 455.631 -7.23858 485.79 11.8025 504.829L15.1726 508.199C34.2137 527.238 64.3762 522.183 85.9449 500.617L193.957 392.617C196.821 389.752 201.203 389.078 204.741 391.1C286.466 439.962 390.771 429.347 461.038 359.256ZM200.023 319.999C138.856 258.838 138.856 159.431 200.023 98.27C261.19 37.1093 360.609 37.1093 421.776 98.27C482.943 159.431 482.943 258.838 421.776 319.999C360.609 381.16 261.359 381.16 200.023 319.999Z" fill="#000080"/>
</svg>
